# xmcd CD database file
#
# Track frame offsets:
#	150
#	15980
#	29446
#	46296
#	61550
#	73059
#	90069
#	106482
#	121749
#	136408
#	147363
#	160761
#	176026
#	190688
#	207465
#	225165
#	238353
#
# Disc length: 3383 seconds
#
# Revision: 2
# Processed by: cddbd v1.5.2PL0 Copyright (c) Steve Scherf et al.
# Submitted via: CDex 1.51
#
DISCID=da0d3511
DTITLE=mój empik - moja muzyka vol.1 CD 2
DYEAR=2016
DGENRE=Jazz
TTITLE0=Nat King Cole - Unforgettable
TTITLE1=Dean Martin - Dream A Little Dream Of Me
TTITLE2=Dinah Washington - All Of Me
TTITLE3=Peggy Lee - Fever
TTITLE4=Dinah Washington - When I Fall In Love
TTITLE5=Ella Fitzgerald - Blue Skies
TTITLE6=Nina Simone - My Babe Just Cares For Me
TTITLE7=Peggy Lee - Black Coffee
TTITLE8=Carmen McRae - Summertime
TTITLE9=Sarah Vaughan - Somebody Else's Dream
TTITLE10=Bobby Darin - How About Me
TTITLE11=Louis Armstrong - Mack The Knife
TTITLE12=Quincy Jones - Our Love Is Here To Stay
TTITLE13=Frank Sinatra - I've Got You Under My Skin
TTITLE14=Andy Wiliams - My One And Only Love
TTITLE15=Quincy Janes - Desafinado
TTITLE16=Louis Armstrong - La Vie En Rose
EXTD=YEAR: 2016
EXTT0=
EXTT1=
EXTT2=
EXTT3=
EXTT4=
EXTT5=
EXTT6=
EXTT7=
EXTT8=
EXTT9=
EXTT10=
EXTT11=
EXTT12=
EXTT13=
EXTT14=
EXTT15=
EXTT16=
PLAYORDER=
